<svg xmlns="http://www.w3.org/2000/svg" width="40" height="40" viewBox="0 0 40 40" fill="none" aria-labelledby="Close"><title id="Close" hidden="">Close</title><rect width="40" height="40" fill="#222222"/><path fill-rule="evenodd" clip-rule="evenodd" d="M21.4143 20L27.7072 13.707C28.0982 13.316 28.0982 12.684 27.7072 12.293C27.3162 11.902 26.6842 11.902 26.2933 12.293L20.0002 18.586L13.7072 12.293C13.3162 11.902 12.6842 11.902 12.2932 12.293C11.9022 12.684 11.9022 13.316 12.2932 13.707L18.5862 20L12.2932 26.293C11.9022 26.684 11.9022 27.316 12.2932 27.707C12.4882 27.902 12.7442 28 13.0002 28C13.2563 28 13.5122 27.902 13.7072 27.707L20.0002 21.414L26.2933 27.707C26.4882 27.902 26.7443 28 27.0002 28C27.2562 28 27.5122 27.902 27.7072 27.707C28.0982 27.316 28.0982 26.684 27.7072 26.293L21.4143 20Z" fill="white"/><mask id="mask0_21_1009" maskUnits="userSpaceOnUse" x="12" y="11" width="17" height="17"><path fill-rule="evenodd" clip-rule="evenodd" d="M21.4143 20L27.7072 13.707C28.0982 13.316 28.0982 12.684 27.7072 12.293C27.3162 11.902 26.6842 11.902 26.2933 12.293L20.0002 18.586L13.7072 12.293C13.3162 11.902 12.6842 11.902 12.2932 12.293C11.9022 12.684 11.9022 13.316 12.2932 13.707L18.5862 20L12.2932 26.293C11.9022 26.684 11.9022 27.316 12.2932 27.707C12.4882 27.902 12.7442 28 13.0002 28C13.2563 28 13.5122 27.902 13.7072 27.707L20.0002 21.414L26.2933 27.707C26.4882 27.902 26.7443 28 27.0002 28C27.2562 28 27.5122 27.902 27.7072 27.707C28.0982 27.316 28.0982 26.684 27.7072 26.293L21.4143 20Z" fill="white"/></mask><g mask="url(#mask0_21_1009)"/></svg>