<svg xmlns="http://www.w3.org/2000/svg" width="30" height="30" viewBox="0 0 79 79" fill="none" style="margin:0 12px;">
  <circle cx="39.5" cy="39.5" r="39.5" fill="#D9D9D9"/>
  <path d="M33.0348 30.6611C33.0067 31.5101 33.1461 32.3564 33.4451 33.1515C33.744 33.9467 34.1967 34.6751 34.7772 35.2954C35.3577 35.9156 36.0546 36.4154 36.8283 36.7662C37.6019 37.1171 38.4371 37.3121 39.2861 37.3402C40.1351 37.3683 40.9814 37.2289 41.7765 36.9299C42.5717 36.631 43.3001 36.1783 43.9204 35.5978C44.5406 35.0173 45.0404 34.3204 45.3912 33.5467C45.7421 32.7731 45.9371 31.9379 45.9652 31.0889C45.9933 30.2399 45.8539 29.3936 45.5549 28.5985C45.256 27.8033 44.8033 27.0749 44.2228 26.4546C43.6423 25.8344 42.9454 25.3346 42.1717 24.9838C41.3981 24.6329 40.5629 24.4379 39.7139 24.4098C38.8649 24.3817 38.0186 24.5211 37.2235 24.8201C36.4283 25.119 35.6999 25.5717 35.0796 26.1522C34.4594 26.7327 33.9596 27.4296 33.6088 28.2033C33.2579 28.9769 33.0629 29.8121 33.0348 30.6611Z" stroke="black" strokeWidth="2.31" stroke-linecap="round" stroke-linejoin="round"/>
  <path d="M52.4375 52.5938C51.3776 50.0407 49.5828 47.8587 47.2799 46.3234C44.977 44.7882 42.2696 43.9688 39.5 43.9688C36.7304 43.9688 34.023 44.7882 31.7201 46.3234C29.4172 47.8587 27.6224 50.0407 26.5625 52.5937" stroke="black" strokeWidth="2.31" stroke-linecap="round" stroke-linejoin="round"/>
</svg>