<svg id="camera-svg" width="28" height="28" viewBox="0 0 256 256" fill="none" xmlns="http://www.w3.org/2000/svg">
            <path d="M208 58H179.21L165 36.67C164.451 35.8474 163.707 35.1732 162.835 34.7073C161.963 34.2415 160.989 33.9985 160 34H96C95.0111 33.9985 94.0372 34.2415 93.1648 34.7073C92.2925 35.1732 91.5488 35.8474 91 36.67L76.78 58H48C42.1652 58 36.5694 60.3179 32.4436 64.4437C28.3178 68.5695 26 74.1652 26 80V192C26 197.835 28.3178 203.431 32.4436 207.556C36.5694 211.682 42.1652 214 48 214H208C213.835 214 219.431 211.682 223.556 207.556C227.682 203.431 230 197.835 230 192V80C230 74.1652 227.682 68.5695 223.556 64.4437C219.431 60.3179 213.835 58 208 58ZM218 192C218 194.652 216.946 197.196 215.071 199.071C213.196 200.946 210.652 202 208 202H48C45.3478 202 42.8043 200.946 40.9289 199.071C39.0536 197.196 38 194.652 38 192V80C38 77.3478 39.0536 74.8043 40.9289 72.9289C42.8043 71.0536 45.3478 70 48 70H80C80.9889 70.0015 81.9628 69.7585 82.8352 69.2927C83.7075 68.8268 84.4512 68.1526 85 67.33L99.21 46H156.78L171 67.33C171.549 68.1526 172.293 68.8268 173.165 69.2927C174.037 69.7585 175.011 70.0015 176 70H208C210.652 70 213.196 71.0536 215.071 72.9289C216.946 74.8043 218 77.3478 218 80V192ZM128 90C119.693 90 111.573 92.4633 104.666 97.0783C97.7592 101.693 92.3759 108.253 89.1971 115.927C86.0182 123.602 85.1864 132.047 86.807 140.194C88.4276 148.341 92.4277 155.825 98.3015 161.698C104.175 167.572 111.659 171.572 119.806 173.193C127.953 174.814 136.398 173.982 144.073 170.803C151.747 167.624 158.307 162.241 162.922 155.334C167.537 148.427 170 140.307 170 132C170 120.861 165.575 110.178 157.698 102.302C149.822 94.425 139.139 90 128 90ZM128 162C122.067 162 116.266 160.241 111.333 156.944C106.399 153.648 102.554 148.962 100.284 143.481C98.013 137.999 97.4189 131.967 98.5764 126.147C99.734 120.328 102.591 114.982 106.787 110.787C110.982 106.591 116.328 103.734 122.147 102.576C127.967 101.419 133.999 102.013 139.48 104.284C144.962 106.554 149.648 110.399 152.944 115.333C156.241 120.266 158 126.067 158 132C158 139.957 154.839 147.587 149.213 153.213C143.587 158.839 135.956 162 128 162Z" fill="black" style="fill: rgb(0, 0, 0);"/>
            </svg>