<svg xmlns="http://www.w3.org/2000/svg" viewBox="0 0 56.24 50"><g id="Layer_2" data-name="Layer 2"><g id="Layer_1-2" data-name="Layer 1"><path d="M24.3,0l.9,2.07,2.07.9-2.07.89-.9,2.08-.9-2.08L21.33,3l2.07-.9ZM53.19,22.48l-1.64.71,1.64.71.71,1.63.7-1.63,1.64-.71-1.64-.71-.7-1.63Zm-52,1.17L0,24.17l1.21.52.52,1.21.52-1.21,1.21-.52-1.21-.52-.52-1.21Z" style="fill:#2c6db6"/><path d="M44.28,5.18a1.94,1.94,0,1,1-2.36,1.39,1.94,1.94,0,0,1,2.36-1.39M6.61,10.33a1.28,1.28,0,0,0-2.56,0,1.28,1.28,0,0,0,2.56,0" style="fill:#5bc1ee"/><path d="M45.93,21.27a20.2,20.2,0,1,1-26.85-9.8,20.21,20.21,0,0,1,26.85,9.8" style="fill:#4576bb"/><path d="M23.4,28.86a.34.34,0,0,0,.31,0c.18-.09,4.51-2.39,4.51-5a2.28,2.28,0,0,0-.72-1.7,2.36,2.36,0,0,0-1.61-.63A2.71,2.71,0,0,0,23.55,23a2.7,2.7,0,0,0-2.33-1.44,2.36,2.36,0,0,0-1.61.63,2.28,2.28,0,0,0-.72,1.7c0,2.57,4.33,4.87,4.51,5m-3.33-6.17a1.7,1.7,0,0,1,1.15-.45,2.15,2.15,0,0,1,2,1.74.33.33,0,0,0,.41.24.34.34,0,0,0,.24-.24,2.14,2.14,0,0,1,2-1.74,1.7,1.7,0,0,1,1.15.45,1.58,1.58,0,0,1,.51,1.21c0,1.92-3.24,3.86-4,4.29-.75-.43-4-2.37-4-4.29a1.57,1.57,0,0,1,.5-1.21Zm3.48,8.21a6.33,6.33,0,1,0-6.32-6.33,6.33,6.33,0,0,0,6.32,6.33m0-12a5.66,5.66,0,1,1-5.66,5.66,5.66,5.66,0,0,1,5.66-5.66m0,19.32a1.34,1.34,0,1,0,1.34-1.34,1.34,1.34,0,0,0-1.34,1.34m1.34-.67a.67.67,0,1,1-.67.67.67.67,0,0,1,.67-.67m4,.67a1.34,1.34,0,1,0,1.34-1.34,1.34,1.34,0,0,0-1.34,1.34m1.34-.67a.67.67,0,1,1-.67.67.67.67,0,0,1,.67-.67M38.75,24.9h-2a.67.67,0,0,0-.67.67H34.75a.32.32,0,0,0-.33.25l-.26,1.08H31.09v.67h3.33a.33.33,0,0,1,0,.66H30.09v.67h.61l-.4,2.66H26.48l-.06-.38-.66.1,0,.28H23.7l-.08-.4L23,31.3l.8,4a.33.33,0,0,0,.33.27h8.25l-.17.67H24.09a.33.33,0,0,0,0,.66h8.33a.32.32,0,0,0,.33-.25l.33-1.33,1.28-6.41h.06a1,1,0,0,0,.4-1.91l.19-.76h1.07a.67.67,0,0,0,.67.67h2a.66.66,0,0,0,.66-.67v-.66a.66.66,0,0,0-.66-.67M30.2,32.23l-.4,2.67H27l-.45-2.67Zm2.28,2.67h-2l.4-2.67H33Zm-8.66-2.67h2.09l.44,2.67h-2Zm9.32-.67H31l.4-2.66h2.31Zm3.61-6h2v.66h-2Zm-4.2-2.33a.34.34,0,0,1,0-.67h.33v-.33a.34.34,0,1,1,.67,0v.33h.33a.34.34,0,0,1,0,.67h-.33v.33a.34.34,0,0,1-.67,0v-.33h-.33m-2-3.67a.33.33,0,0,1-.33-.33.33.33,0,0,1,.33-.33h.33v-.34a.34.34,0,0,1,.67,0v.34h.33a.33.33,0,0,1,.34.33.34.34,0,0,1-.34.33h-.33v.34a.34.34,0,0,1-.67,0v-.34h-.33M20.22,33.23a.34.34,0,1,1,0,.67h-.33v.33a.34.34,0,0,1-.67,0V33.9h-.33a.34.34,0,0,1,0-.67h.33V32.9a.34.34,0,1,1,.67,0v.33h.33" style="fill:#fff"/></g></g></svg>