<svg xmlns="http://www.w3.org/2000/svg" id="Layer_1" data-name="Layer 1" viewBox="0 0 28.7 26.09"><path d="M4.09,12.39A10.72,10.72,0,0,1,23.26,6.45l1.62-.51A2.09,2.09,0,0,0,23.19,4.3,2.09,2.09,0,0,1,21.61,3a2.1,2.1,0,0,0-2.4-1.27,2.07,2.07,0,0,1-2-.58,2.11,2.11,0,0,0-2.7-.25,2.07,2.07,0,0,1-2,.21h0a2.11,2.11,0,0,0-2.59.81h0a2.06,2.06,0,0,1-1.79,1h0a2.1,2.1,0,0,0-2.08,1.7h0A2.07,2.07,0,0,1,4.77,6.23a2.09,2.09,0,0,0-1.26,2.4,2.07,2.07,0,0,1-.58,1.91h0a2.08,2.08,0,0,0-.47,2.31ZM12,3.93a9.56,9.56,0,0,1,10,2.9l.57-.18A10.09,10.09,0,0,0,4.75,12.18L5.32,12A9.56,9.56,0,0,1,12,3.93ZM26.91,12.8h0l-1.38.42a10.73,10.73,0,0,1-19.48,6l-1.36.45h0a2.1,2.1,0,0,0,1.74,2.09h0A2.11,2.11,0,0,1,8,23a2.08,2.08,0,0,0,2.4,1.27,2.12,2.12,0,0,1,2,.58h0a2.1,2.1,0,0,0,2.7.25h0a2.07,2.07,0,0,1,2-.21h0a2.09,2.09,0,0,0,2.58-.79h0a2.13,2.13,0,0,1,1.8-1,2.08,2.08,0,0,0,2.08-1.73,2.12,2.12,0,0,1,1.29-1.59,2.08,2.08,0,0,0,1.26-2.4,2.11,2.11,0,0,1,.57-1.88A2.09,2.09,0,0,0,26.91,12.8Zm-9.13,9.87a10.11,10.11,0,0,0,7.09-9.27l-.56.18A9.53,9.53,0,0,1,7.25,18.86L6.69,19A10.09,10.09,0,0,0,17.78,22.67Zm-4.67-15,.4.44.6-.1-.3.52.28.54L13.5,9l-.42.43L13,8.83l-.53-.26L13,8.32Zm1.79-.14.29.31.42-.07-.21.37.2.38-.42-.09-.3.31-.05-.42-.38-.19L14.84,8Zm-3.35,1,.29.31.42-.07-.21.37.2.37-.42-.08-.3.31,0-.43-.38-.18L11.49,9ZM16.31,18l-.41-.44-.59.1.29-.53-.28-.53.59.12.42-.43.07.6.54.26-.55.25Zm-1.8.14-.28-.31-.42.07.2-.37-.19-.38.41.09.3-.31.05.42.38.19-.39.18Zm3.35-1-.28-.31-.43.07.21-.37-.19-.37.41.08.3-.31.05.43.38.18-.39.18ZM.69,14.54l3.23-1,.29.91-2,.63.35,1.1,1.66-.52.14,1-1.52.47.41,1.3,2.1-.66.28.92-3.33,1ZM6.07,12.8l1.1-.34L10.69,17l-1.25.4-.76-1.12L7,16.8v1.36l-1.29.38Zm2,2.65c-.1-.13-.19-.27-.3-.41l-.29-.42-.27-.39L7,13.92v1.86Zm1.41-3.72.27-.08.45-.11.48-.15.36-.12a2.49,2.49,0,0,1,1.55-.08,1.38,1.38,0,0,1,.83,1,1.33,1.33,0,0,1,0,.88,1.49,1.49,0,0,1-.48.68,1.5,1.5,0,0,1,.5.22,3.23,3.23,0,0,1,.49.41c.17.17.35.36.54.59l.62.74-1.33.41c-.27-.3-.5-.57-.7-.81a7.08,7.08,0,0,0-.52-.59,2.69,2.69,0,0,0-.41-.33.5.5,0,0,0-.38,0h-.12l.7,2.15-1.24.38Zm1.92,1.81.32-.1a.7.7,0,0,0,.39-.31.64.64,0,0,0,0-.57,1.15,1.15,0,0,0-.12-.25.65.65,0,0,0-.18-.19.54.54,0,0,0-.25-.09,1,1,0,0,0-.34,0l-.28.08ZM17,9.39,18.21,9l1.61,5.14-1.06.33-2.14-1.76-.18-.17-.25-.22-.25-.22-.2-.17a1.15,1.15,0,0,0,.1.27c0,.11.09.21.13.32l.12.32a.79.79,0,0,0,.09.26l.64,2-1.24.39L14,10.33,15,10l2.15,1.75.22.19.25.22.25.21.19.17-.1-.27L17.81,12c0-.11-.09-.22-.12-.32l-.1-.28Zm2.17-.68,3.23-1,.29.92-2,.61.35,1.1,1.65-.51.14.94-1.52.48.38,1.29,2.1-.66.28.92-3.33,1Zm3.93-1.23.24-.08.44-.14.51-.16L24.69,7a2.86,2.86,0,0,1,1.16-.15,2.17,2.17,0,0,1,.93.3,2.34,2.34,0,0,1,.71.69,4.15,4.15,0,0,1,.47,1,3.86,3.86,0,0,1,.19,1.11,2.15,2.15,0,0,1-.2.94,2,2,0,0,1-.61.74,3,3,0,0,1-1.05.52l-.4.12-.37.11-.4.12-.48.15Zm1.69.43L24.58,8l1.11,3.39h.17l.21-.07a1.12,1.12,0,0,0,.52-.29.87.87,0,0,0,.2-.46,1.42,1.42,0,0,0,0-.58,3.57,3.57,0,0,0-.1-.72c-.37-1.17-.94-1.64-1.71-1.4Z" style="fill: #25d872;"/></svg>