<svg xmlns="http://www.w3.org/2000/svg" viewBox="0 0 56.24 50"><g id="Layer_2" data-name="Layer 2"><g id="Layer_1-2" data-name="Layer 1"><path d="M45.93,21.27a20.2,20.2,0,1,1-26.84-9.8,20.2,20.2,0,0,1,26.84,9.8" style="fill:#4576bb"/><path d="M24.3,0l.9,2.07,2.07.9-2.07.89-.9,2.07-.9-2.07L21.33,3l2.07-.9ZM53.19,22.49l-1.63.7,1.63.71.71,1.64.71-1.64,1.63-.71-1.63-.7-.71-1.64Zm-52,1.16L0,24.17l1.21.52.52,1.21.52-1.21,1.21-.52-1.21-.52-.52-1.21Z" style="fill:#2c6db6"/><path d="M44.28,5.18a1.94,1.94,0,1,1-2.36,1.39,1.94,1.94,0,0,1,2.36-1.39M6.61,10.33a1.28,1.28,0,0,0-2.56,0,1.28,1.28,0,0,0,2.56,0" style="fill:#5bc1ee"/><path d="M41.4,24V38.29A1.7,1.7,0,0,1,39.7,40H15.83a1.7,1.7,0,0,1-1.7-1.7V24Z" style="fill:#ababab"/><path d="M40.79,22.76A1.49,1.49,0,0,1,41.4,24H14.13a1.49,1.49,0,0,1,.61-1.2l12.15-8.88a1.47,1.47,0,0,1,1.76,0l12.14,8.88" style="fill:#d8d7db"/><path d="M37.4,21.58a.53.53,0,0,1,.53.53V37.28a.54.54,0,0,1-.53.54H18.2a.54.54,0,0,1-.54-.54V22.11a.54.54,0,0,1,.54-.53H37.4" style="fill:#e0e5f4"/><path d="M20.79,26.29a.27.27,0,0,1,0-.54H34.86a.27.27,0,0,1,0,.54H20.79m14.07,1.78H20.79a.27.27,0,0,0,0,.54H34.86a.27.27,0,0,0,0-.54m0,2.32H20.79a.27.27,0,0,0,0,.54H34.86a.27.27,0,0,0,0-.54" style="fill:#01516a"/><path d="M41.4,24V38.32A1.67,1.67,0,0,1,39.73,40H15.83Z" style="fill:#fff"/><path d="M39.7,40H15.8a1.67,1.67,0,0,1-1.67-1.67V24Z" style="fill:#f2f0f8"/></g></g></svg>