<svg xmlns="http://www.w3.org/2000/svg" width="20" height="20" viewBox="0 0 20 20" fill="none">
    <g clip-path="url(#clip0_102_10)">
    <path d="M14.4861 0.328314C14.1702 0.366917 13.7035 0.531857 13.4543 0.696796C13.1455 0.900339 12.8086 1.25829 12.5243 1.68643C12.384 1.897 12.2611 2.06895 12.2471 2.07246C12.2366 2.07597 12.1278 1.92507 12.005 1.73557C11.4821 0.921395 10.9311 0.517819 10.1731 0.377445C9.6186 0.279183 9.15887 0.335333 8.73424 0.559931C7.95867 0.967017 7.59019 1.9005 7.90252 2.67607L7.98675 2.88663L6.69531 2.89716C5.45299 2.90769 5.40035 2.9112 5.3056 2.98139C5.08451 3.14282 5.08451 3.13229 5.08451 4.89047C5.08451 6.38195 5.08802 6.49776 5.15119 6.61006C5.24594 6.78904 5.39685 6.86273 5.70216 6.88379L5.96185 6.90134V9.25962V11.6179L5.75831 11.66C5.64952 11.6811 5.27402 11.7934 4.92659 11.9057L4.29491 12.1092L4.27385 11.8951C4.2528 11.6565 4.22121 11.5793 4.08435 11.453L3.98959 11.3652L2.18579 11.3547C0.20651 11.3442 0.238094 11.3407 0.0836826 11.5512C0.0134955 11.646 0.0134955 11.7092 0.0029674 15.4887C-0.00405131 19.2753 -0.00405131 19.3315 0.0661358 19.4473C0.104739 19.5104 0.185454 19.5912 0.248622 19.6298C0.360922 19.6964 0.431109 19.7 2.12964 19.7C3.70885 19.7 3.91239 19.6929 4.02118 19.6403C4.19314 19.5596 4.27736 19.4087 4.27736 19.1806C4.27736 19.0156 4.28438 18.9981 4.35457 18.9981C4.39317 18.9981 5.92325 19.156 7.74811 19.3525C10.8469 19.6824 11.1031 19.7035 11.5768 19.6859C12.1243 19.6649 12.5138 19.5947 12.9279 19.4367C13.2438 19.3209 13.6473 19.0999 13.886 18.9244C14.444 18.5033 19.343 14.5061 19.5009 14.3447C19.9221 13.9025 20.0975 13.2462 19.9466 12.6637C19.7992 12.1022 19.3114 11.5828 18.778 11.4179L18.578 11.3547L18.5675 9.10521L18.5604 6.85571H18.8166C19.0272 6.85571 19.0974 6.84168 19.1956 6.775C19.4413 6.61357 19.4378 6.63462 19.4378 4.87644C19.4378 3.37443 19.4343 3.29021 19.3676 3.15334C19.2377 2.88663 19.2588 2.89014 17.8059 2.89014C16.5952 2.89014 16.518 2.88663 16.5355 2.82697C16.5461 2.79539 16.5812 2.69713 16.6163 2.60939C16.7145 2.35321 16.7215 1.88647 16.6373 1.60221C16.4408 0.956489 15.8793 0.465179 15.1985 0.342352C14.9002 0.289711 14.83 0.289711 14.4861 0.328314ZM10.0783 1.32848C10.3661 1.40218 10.5416 1.50395 10.7626 1.711C10.9381 1.87594 11.2575 2.32163 11.4891 2.7252L11.5873 2.89365L10.4503 2.88312C9.42207 2.8726 9.30276 2.86558 9.19046 2.80592C8.643 2.51464 8.56228 1.897 9.02201 1.50746C9.27819 1.28637 9.66773 1.21969 10.0783 1.32848ZM15.1423 1.32848C15.567 1.45482 15.8266 1.88647 15.7179 2.28653C15.6722 2.46551 15.4792 2.69011 15.2827 2.79539C15.1458 2.86909 15.0897 2.8726 14.0263 2.88312C13.4122 2.89014 12.9104 2.88663 12.9104 2.87611C12.9104 2.86558 13.0157 2.67958 13.149 2.46551C13.4262 2.00228 13.7772 1.61274 14.0369 1.46885C14.3808 1.28286 14.8089 1.22671 15.1423 1.32848ZM10.4187 4.87293V5.90819H8.24293H6.06713V4.87293V3.83767H8.24293H10.4187V4.87293ZM13.1209 8.5016V13.169L12.9314 13.2287L12.7419 13.2884L12.6261 13.1936C12.4612 13.0532 12.2436 12.9515 11.7804 12.8006L11.3663 12.6672V8.25244V3.83767H12.2436H13.1209V8.5016ZM18.4552 4.87293V5.90819H16.2618H14.0685V4.89749C14.0685 4.33951 14.079 3.87276 14.093 3.86223C14.1036 3.8482 15.0932 3.83767 16.2864 3.83767H18.4552V4.87293ZM10.4187 9.61407V12.3689L10.3485 12.3479C10.3064 12.3338 9.81512 12.1759 9.25012 11.9899C8.12712 11.6249 7.76917 11.5372 7.25329 11.5021L6.90938 11.4775V9.16838V6.85571H8.66405H10.4187V9.61407ZM17.6059 9.12627L17.5954 11.4003L15.8758 12.0741C14.9318 12.4461 14.1351 12.7479 14.1141 12.7479C14.079 12.7514 14.0685 12.1408 14.0685 9.80357V6.85571H15.8407H17.6129L17.6059 9.12627ZM18.5499 12.3338C18.7394 12.4251 18.957 12.6707 19.0096 12.8497C19.1009 13.148 19.0237 13.4638 18.8131 13.6954C18.6376 13.8814 13.5245 18.019 13.1876 18.2471C12.7314 18.5524 12.0892 18.7524 11.5558 18.7524C11.3803 18.7524 5.12312 18.1172 4.44581 18.0295L4.27736 18.0084V15.5589V13.1059L5.07749 12.8427C6.16539 12.4847 6.31981 12.4531 6.96202 12.4566C7.37963 12.4566 7.55159 12.4742 7.79724 12.5338C8.14467 12.6216 11.8611 13.8218 11.9979 13.892C12.1524 13.9727 12.219 14.0745 12.2366 14.264C12.2682 14.6009 12.0646 14.8219 11.7242 14.8219C11.6295 14.8219 10.724 14.7412 9.71686 14.6465C8.70968 14.5482 7.79724 14.471 7.69196 14.471C7.51299 14.471 7.48842 14.4815 7.36208 14.6079C7.24627 14.7237 7.22522 14.7658 7.22522 14.8956C7.22522 15.0887 7.32699 15.2606 7.47789 15.3308C7.5551 15.3659 8.29908 15.4501 9.68177 15.58C11.4856 15.7519 11.7979 15.773 11.9804 15.7379C12.6507 15.6151 13.1455 15.0641 13.1841 14.4008L13.1981 14.1306L15.5915 13.1971C17.7428 12.3549 18.0024 12.2636 18.1884 12.2601C18.3323 12.2601 18.4446 12.2847 18.5499 12.3338ZM3.32984 15.5063V18.7173H2.13665H0.943474V15.5063V12.2952H2.13665H3.32984V15.5063Z" fill="white"/>
    </g>
    <defs>
    <clipPath id="clip0_102_10">
    <rect width="20" height="20" fill="white"/>
    </clipPath>
    </defs>
  </svg>