<svg width="87" height="26" viewBox="0 0 87 26" fill="none" xmlns="http://www.w3.org/2000/svg">
<g clip-path="url(#clip0_221_508)">
<path d="M73.5 26C80.4036 26 86 20.4036 86 13.5C86 6.59644 80.4036 1 73.5 1C66.5964 1 61 6.59644 61 13.5C61 20.4036 66.5964 26 73.5 26Z" fill="#FEF5F4" stroke="#EAEAEA"/>
<path d="M68.8333 6.83333V16.5833L74 19.1667L79.1667 16.5833V6.83333H68.8333Z" stroke="black" stroke-linejoin="round"/>
<path d="M75.1667 10.8072H70.8333V15.5833L74 17.1667L77.1667 15.5833V12.3333M77.1667 11.3333V8.83333H70.3333" stroke="black" stroke-linejoin="round"/>
<path d="M72.8333 12.3333V14.5833L74 15.1667L75.1667 14.5833" stroke="#020000" stroke-linejoin="round"/>
<path d="M52.5 26C59.4036 26 65 20.4036 65 13.5C65 6.59644 59.4036 1 52.5 1C45.5964 1 40 6.59644 40 13.5C40 20.4036 45.5964 26 52.5 26Z" fill="#FEF5F4" stroke="#EAEAEA"/>
<path d="M58.5 13.64C58.5 13.22 58.47 12.81 58.39 12.39H52.62V14.75H55.93C55.79 15.51 55.35 16.18 54.71 16.61V18.14H56.68C57.83 17.08 58.5 15.5 58.5 13.64Z" fill="#4285F4"/>
<path d="M52.62 19.62C54.27 19.62 55.66 19.08 56.68 18.14L54.71 16.61C54.16 16.98 53.45 17.2 52.63 17.2C51.03 17.2 49.68 16.12 49.19 14.67H47.16V16.25C48.19 18.32 50.31 19.62 52.62 19.62Z" fill="#34A853"/>
<path d="M49.18 14.67C48.92 13.91 48.92 13.09 49.18 12.33V10.75H47.15C46.28 12.48 46.28 14.52 47.15 16.25L49.18 14.67Z" fill="#FBBC04"/>
<path d="M52.62 9.8C53.49 9.79 54.34 10.12 54.97 10.72L56.72 8.97C55.61 7.93 54.14 7.36 52.62 7.38C50.31 7.38 48.19 8.69 47.15 10.75L49.18 12.33C49.67 10.88 51.02 9.8 52.62 9.8Z" fill="#EA4335"/>
<path d="M33 26C39.9036 26 45.5 20.4036 45.5 13.5C45.5 6.59644 39.9036 1 33 1C26.0964 1 20.5 6.59644 20.5 13.5C20.5 20.4036 26.0964 26 33 26Z" fill="#5F259F" stroke="#EAEAEA"/>
<path d="M37.36 11.41C37.36 11.05 37.05 10.74 36.69 10.74H35.46L32.64 7.5C32.38 7.2 31.97 7.1 31.56 7.2L30.58 7.51C30.43 7.56 30.37 7.77 30.48 7.87L33.56 10.8H28.89C28.74 10.8 28.63 10.9 28.63 11.06V11.57C28.63 11.93 28.94 12.24 29.3 12.24H30.02V14.7C30.02 16.55 31 17.63 32.64 17.63C33.15 17.63 33.56 17.58 34.08 17.37V19.01C34.08 19.47 34.44 19.83 34.9 19.83H35.62C35.77 19.83 35.93 19.68 35.93 19.52V12.18H37.11C37.26 12.18 37.37 12.08 37.37 11.92V11.41H37.36ZM34.08 15.83C33.77 15.98 33.36 16.04 33.05 16.04C32.23 16.04 31.82 15.63 31.82 14.7V12.24H34.08V15.83Z" fill="white"/>
<path d="M13.5 26C20.4036 26 26 20.4036 26 13.5C26 6.59644 20.4036 1 13.5 1C6.59644 1 1 6.59644 1 13.5C1 20.4036 6.59644 26 13.5 26Z" fill="#F8FDFE" stroke="#EAEAEA"/>
<path fill-rule="evenodd" clip-rule="evenodd" d="M22.82 12.27C22.66 11.76 22.18 11.41 21.65 11.41H21.63C21.28 11.41 20.95 11.56 20.73 11.79C20.51 11.55 20.18 11.41 19.83 11.41H19.81C19.5 11.41 19.21 11.52 18.99 11.72V11.63C18.99 11.54 18.9 11.45 18.81 11.45H17.97C17.86 11.45 17.79 11.54 17.79 11.63V16.26C17.79 16.37 17.88 16.44 17.97 16.44H18.81C18.9 16.44 18.97 16.37 18.99 16.28V12.93C19.01 12.78 19.12 12.66 19.28 12.64H19.43C19.5 12.64 19.56 12.68 19.61 12.71C19.68 12.76 19.72 12.86 19.72 12.97V16.28C19.72 16.39 19.81 16.46 19.9 16.46H20.74C20.83 16.46 20.92 16.39 20.92 16.28V12.96C20.92 12.85 20.97 12.76 21.05 12.69C21.09 12.65 21.14 12.64 21.2 12.64H21.35C21.53 12.66 21.64 12.8 21.64 12.95V16.24C21.64 16.35 21.73 16.42 21.82 16.42H22.66C22.77 16.42 22.84 16.33 22.84 16.24V12.71C22.89 12.47 22.86 12.36 22.82 12.27Z" fill="#00BAF2"/>
<path fill-rule="evenodd" clip-rule="evenodd" d="M17.17 11.46H16.69V10.67C16.69 10.58 16.62 10.51 16.53 10.51C16.51 10.51 16.51 10.51 16.49 10.51C15.96 10.66 16.07 11.41 15.1 11.48H15.01C14.99 11.48 14.99 11.48 14.97 11.48C14.88 11.5 14.82 11.57 14.82 11.66V12.5C14.82 12.61 14.91 12.68 15 12.68H15.51V16.3C15.51 16.41 15.58 16.48 15.69 16.48H16.51C16.62 16.48 16.69 16.39 16.69 16.3V12.68H17.17C17.28 12.68 17.35 12.59 17.35 12.5V11.64C17.35 11.53 17.26 11.46 17.17 11.46Z" fill="#00BAF2"/>
<path fill-rule="evenodd" clip-rule="evenodd" d="M14.15 11.46H13.31C13.2 11.46 13.13 11.55 13.13 11.64V13.4C13.13 13.51 13.04 13.6 12.93 13.6H12.58C12.47 13.6 12.38 13.51 12.38 13.4V11.64C12.38 11.53 12.29 11.46 12.2 11.46H11.36C11.25 11.46 11.18 11.55 11.18 11.64V13.58C11.18 14.31 11.69 14.84 12.41 14.84H12.94C12.94 14.84 12.96 14.84 12.98 14.84C13.07 14.86 13.14 14.93 13.14 15.04C13.14 15.15 13.07 15.22 12.98 15.24C12.98 15.24 12.98 15.24 12.96 15.24H11.73C11.62 15.24 11.55 15.33 11.55 15.42V16.28C11.55 16.39 11.64 16.46 11.73 16.46H13.1C13.81 16.46 14.33 15.93 14.33 15.2V11.63C14.33 11.53 14.26 11.46 14.15 11.46Z" fill="#20336B"/>
<path fill-rule="evenodd" clip-rule="evenodd" d="M6.07 13.02V13.55C6.07 13.66 5.98 13.75 5.87 13.75H5.79H5.34V12.69H5.87C5.98 12.69 6.07 12.78 6.07 12.89V13.02ZM6.14 11.46H4.31C4.22 11.46 4.13 11.55 4.13 11.64V16.27C4.13 16.38 4.2 16.45 4.29 16.45H5.15C5.26 16.45 5.33 16.36 5.33 16.27V14.97H6.13C6.81 14.97 7.26 14.49 7.26 13.82V12.61C7.27 11.94 6.8 11.46 6.14 11.46Z" fill="#20336B"/>
<path fill-rule="evenodd" clip-rule="evenodd" d="M9.52 15.01V15.14C9.52 15.16 9.52 15.16 9.52 15.18C9.52 15.2 9.52 15.2 9.52 15.22C9.5 15.29 9.43 15.35 9.34 15.35H8.99C8.88 15.35 8.79 15.26 8.79 15.17V15.01V14.59V14.46C8.79 14.35 8.88 14.28 8.99 14.28H9.34C9.45 14.28 9.54 14.37 9.54 14.46V15.03H9.52V15.01ZM9.4 11.46H8.24C8.13 11.46 8.06 11.53 8.06 11.64V12.44C8.06 12.55 8.15 12.62 8.26 12.62H9.36C9.45 12.64 9.52 12.69 9.52 12.8V12.91C9.5 13 9.45 13.07 9.36 13.09H8.81C8.08 13.09 7.57 13.58 7.57 14.28V15.27C7.57 15.96 8.01 16.44 8.74 16.44H10.26C10.53 16.44 10.75 16.24 10.75 15.96V12.72C10.75 11.95 10.35 11.46 9.4 11.46Z" fill="#20336B"/>
</g>
<defs>
<clipPath id="clip0_221_508">
<rect width="87" height="26" fill="white"/>
</clipPath>
</defs>
</svg>
