<svg width="16" height="16" viewBox="0 0 16 16" fill="none" xmlns="http://www.w3.org/2000/svg">
<path fill-rule="evenodd" clip-rule="evenodd" d="M11.9794 4.50775L13.3547 3.12271L13.0559 2.82165C10.6441 0.392838 6.71979 0.392732 4.308 2.82165C1.99671 5.14925 1.902 8.87471 4.02061 11.3189L2.64527 12.7039L2.94422 13.0049C5.35601 15.4337 9.28021 15.4338 11.692 13.0049C14.0033 10.6774 14.098 6.95191 11.9794 4.50775ZM4.90521 3.42371C6.88665 1.42828 10.051 1.33195 12.1467 3.1345L11.3624 3.92431C9.69451 2.54689 7.22859 2.64205 5.67119 4.21034C4.11389 5.77873 4.01929 8.26206 5.38716 9.94171L4.61803 10.7163C2.82811 8.60578 2.92387 5.41913 4.90521 3.42371ZM11.0969 12.4028C9.11549 14.3982 5.95117 14.4946 3.85547 12.692L4.63974 11.9022C6.30762 13.2797 8.77354 13.1846 10.3309 11.6163C11.8882 10.0479 11.9828 7.56456 10.615 5.88481L11.384 5.11035C13.1739 7.22084 13.0784 10.4074 11.0969 12.4028Z" fill="white"/>
</svg>
